<?xml version="1.0" encoding="UTF-8"?>
<svg width="256px" height="60px" viewBox="0 0 256 60" version="1.1" xmlns="http://www.w3.org/2000/svg" xmlns:xlink="http://www.w3.org/1999/xlink">
    <!-- Generator: Sketch 51.2 (57519) - http://www.bohemiancoding.com/sketch -->
    <title>logo/rgb/logo/galaxy-logo-white</title>
    <desc>Created with Sketch.</desc>
    <defs></defs>
    <g id="Symbols" stroke="none" stroke-width="1" fill="none" fill-rule="evenodd">
        <g id="logo/rgb/logo/galaxy-logo-white" fill="#FFFFFF">
            <g id="galaxy-logo-white">
                <path d="M46.04,22.48 L46.04,24.272 L41.784,24.272 L41.784,22.48 C41.784,22.3306659 41.7093341,22.256 41.56,22.256 L27.448,22.256 C27.2986659,22.256 27.224,22.3306659 27.224,22.48 L27.224,36.624 C27.224,36.7733341 27.2986659,36.848 27.448,36.848 L41.56,36.848 C41.7093341,36.848 41.784,36.7733341 41.784,36.624 L41.784,32.272 L36.568,32.272 L36.568,28.048 L46.04,28.048 L46.04,36.624 C46.04,37.8613395 45.602671,38.9119957 44.728,39.776 C43.853329,40.6400043 42.7973395,41.072 41.56,41.072 L27.448,41.072 C26.2106605,41.072 25.1600043,40.6400043 24.296,39.776 C23.4319957,38.9119957 23,37.8613395 23,36.624 L23,22.48 C23,21.2426605 23.4319957,20.1920043 24.296,19.328 C25.1600043,18.4639957 26.2106605,18.032 27.448,18.032 L41.56,18.032 C42.7973395,18.032 43.853329,18.4639957 44.728,19.328 C45.602671,20.1920043 46.04,21.2426605 46.04,22.48 Z M65.14892,18.032 L79.26092,18.032 C80.4982595,18.032 81.554249,18.4639957 82.42892,19.328 C83.303591,20.1920043 83.74092,21.2426605 83.74092,22.48 L83.74092,41.072 L79.48492,41.072 L79.48492,33.328 L64.92492,33.328 L64.92492,41.072 L60.70092,41.072 L60.70092,22.48 C60.70092,21.2426605 61.1329157,20.1920043 61.99692,19.328 C62.8609243,18.4639957 63.9115805,18.032 65.14892,18.032 Z M64.92492,29.104 L79.48492,29.104 L79.48492,22.48 C79.48492,22.3306659 79.4102541,22.256 79.26092,22.256 L65.14892,22.256 C64.9995859,22.256 64.92492,22.3306659 64.92492,22.48 L64.92492,29.104 Z M98.49784,41.072 L98.49784,18 L102.72184,18 L102.72184,36.848 L121.53784,36.848 L121.53784,41.072 L98.49784,41.072 Z M138.98276,18.032 L153.09476,18.032 C154.3321,18.032 155.388089,18.4639957 156.26276,19.328 C157.137431,20.1920043 157.57476,21.2426605 157.57476,22.48 L157.57476,41.072 L153.31876,41.072 L153.31876,33.328 L138.75876,33.328 L138.75876,41.072 L134.53476,41.072 L134.53476,22.48 C134.53476,21.2426605 134.966756,20.1920043 135.83076,19.328 C136.694764,18.4639957 137.74542,18.032 138.98276,18.032 Z M138.75876,29.104 L153.31876,29.104 L153.31876,22.48 C153.31876,22.3306659 153.244094,22.256 153.09476,22.256 L138.98276,22.256 C138.833426,22.256 138.75876,22.3306659 138.75876,22.48 L138.75876,29.104 Z M190.37968,18.032 L195.01968,18.032 L195.01968,19.152 L186.25168,29.552 L195.01968,39.952 L195.01968,41.072 L190.37968,41.072 L183.49968,32.912 L176.61968,41.072 L171.97968,41.072 L171.97968,39.952 L180.71568,29.552 L171.97968,19.152 L171.97968,18.032 L176.61968,18.032 L183.49968,26.192 L190.37968,18.032 Z M228.5926,18.032 L233.6486,18.032 L222.9926,32.464 L222.9926,41.072 L218.7686,41.072 L218.7686,32.464 L208.1126,18.032 L213.1366,18.032 L220.8806,27.824 L228.5926,18.032 Z" id="Galaxy"></path>
            </g>
        </g>
    </g>
</svg>